<svg xmlns="http://www.w3.org/2000/svg" xmlns:xlink="http://www.w3.org/1999/xlink" width="430.475" height="280.131" viewBox="0 0 430.475 280.131"><defs><style>.a,.ae,.ag,.n{fill:none;}.b{fill:#fdcef6;opacity:0.244;}.c{fill:#2c2e6c;}.d{fill:#7c72e3;}.e{fill:#db772c;}.f{fill:#393847;}.aa,.g{fill:#fff;}.h{fill:#191919;}.i{fill:#e6a142;}.j{fill:#f48a33;}.k{fill:#e2863b;}.l{clip-path:url(#a);}.m{fill:#27254b;}.n{stroke:#dfdfdf;stroke-miterlimit:10.003;stroke-width:0.5px;}.ae,.ah,.n,.o{opacity:0.5;}.aa,.ac,.ae,.af,.ah,.n,.o,.r,.x,.z{isolation:isolate;}.o,.r{fill:#dfdfdf;}.p{fill:#cb7c41;}.q{fill:#ecc762;}.r,.z{opacity:0.2;}.s{fill:#ececed;}.t{fill:#dcdcdc;}.u{fill:#9b9b9a;}.v{fill:#6b68cb;}.af,.w{fill:#7771df;}.x,.z{fill:#655fa7;}.aa,.ac,.af,.x{opacity:0.1;}.y{fill:#231a3b;}.ab,.ah{fill:#4844ac;}.ac{fill:gray;}.ad{fill:#333;}.ae{stroke:#4844ac;stroke-miterlimit:10.008;stroke-width:0.25px;}.ag{stroke:#fff;stroke-miterlimit:10.009;stroke-width:1.001px;}.ai{fill:#6e6bc9;}.aj{fill:#edb656;}.ak{fill:#e79547;}.al{fill:#d56e38;}</style><clipPath id="a"><path class="a" d="M1701.714,1003.626l.585.911a2.83,2.83,0,1,0,3.97-4.034,18.617,18.617,0,0,1-2.053-2.836,15.078,15.078,0,0,1-1.542-3.427,11.555,11.555,0,0,1-.637-3.712,13.207,13.207,0,0,1,.666-3.89,11.122,11.122,0,0,0-2.063,3.666,15.49,15.49,0,0,0-.773,4.288,22.988,22.988,0,0,0,.424,4.509,17.585,17.585,0,0,0,1.425,4.425Z"/></clipPath></defs><g transform="translate(-1669.315 -747.346)"><path class="b" d="M1756.65,762.577c-3.879-5.138-10.8-7.728-15.705-8.116s-10.327,1.9-12.213,6.445a13.987,13.987,0,0,0-13.191-11.5c-7.189-.179-13.842,5.606-15.281,11.306,3.131-13.507.461-31.091-10.358-39.763-11.456-9.183-27.981-8.815-40-1.909-5.748,3.3-12.055,10.457-13.911,16.821a22.975,22.975,0,0,0,1.526,16.653c-3.36-2.495-8.656-2.443-11.648.6,1.928-4.8-7.425-16.348-22.245-9.347-13.349,6.306-7.133,21.881-6.912,22.439a14.081,14.081,0,0,0-21.868,11.338h184.379A16.88,16.88,0,0,0,1756.65,762.577Z" transform="translate(94.475 48.395)"/><path class="b" d="M2164.155,825.091c-11.443-15.406-28.655-27.285-47.771-28.981s-39.63,8.4-47.1,26.077a26.72,26.72,0,0,0-50.078-1.889s4.294-16.727-7.451-29.1c-9.564-10.074-28.169-13.475-45.518-3.216-23.227,13.735-21.345,41.736-16.066,49.519A28.471,28.471,0,0,0,1906,847.726H2175.79A75.189,75.189,0,0,0,2164.155,825.091Z" transform="translate(-76 72.665)"/><path class="c" d="M1749.381,991.785c-7.318-10.827-14.918-10.957-14.918-10.957-1.008.483-1.641,2.373-1.641,2.373,7.376,1.526,11.744,9.4,11.744,9.4Z"/><path class="d" d="M1755.007,990.38a13.588,13.588,0,0,1,.64,3.512l-1.246,2.68-1.44-3.526s-4.974-7.486-12.359-8.512a4.92,4.92,0,0,1,1.542-2.475C1751.136,982.712,1753.853,987.66,1755.007,990.38Z"/><path class="e" d="M1708.887,1002.5a45.518,45.518,0,0,0,1.922,16.437c2.652,8.748,7.177,7.325,6.423,4.611a22.433,22.433,0,0,1-1.678-7.231,29.42,29.42,0,0,1,4.9-17.721"/><path class="f" d="M1755.435,935.772c-7.773-1.733-9.482,4.64-9.482,4.64"/><ellipse class="g" cx="4.801" cy="6.601" rx="4.801" ry="6.601" transform="translate(1757.781 937.755) rotate(-22.322)"/><ellipse class="h" cx="1.5" cy="1.8" rx="1.5" ry="1.8" transform="matrix(0.95, -0.311, 0.311, 0.95, 1765.663, 939.733)"/><circle class="g" cx="0.7" cy="0.7" r="0.7" transform="translate(1765.731 941.256)"/><path class="i" d="M1747.214,978.044s13.416-18.377,13.119-12.68c-.4,5.595-6.714,18.391-6.714,18.391l-.4,17.6Z"/><path class="j" d="M1747.732,1000.56l3.657,8.464c3.391,6.46,4.9,11.787,4.382,12.878-1.661,3.573-10.552-8.881-10.552-8.881"/><path class="g" d="M1739.763,1010.327s6.971-21.688,11.176-21.916c5.307-.31,4.114,22.776-5.115,24.32-6.119,1-34.09-1.18-34.09-1.18Z"/><path class="f" d="M1740.719,948.225a61.465,61.465,0,0,0-3.039,8.151c.584,6.812,15.36,8.464,17.977,7.508,5.73-13.407-3.36-20.063-7.3-23.631s-6.565-2.212-6.677-1.514c-.11.6-3.5,5.742-4.936,7.918,0,.1-.1.2-.1.3a.774.774,0,0,0,.687.812Z"/><path class="k" d="M1701.667,1003.578a5.655,5.655,0,0,0,.586.81,2.83,2.83,0,0,0,3.97-4.034,18.514,18.514,0,0,1-2.052-2.836,12.584,12.584,0,0,1-1.544-3.327,11.555,11.555,0,0,1-.637-3.712,13.194,13.194,0,0,1,.666-3.889,11.1,11.1,0,0,0-2.063,3.666,15.448,15.448,0,0,0-.773,4.288,22.966,22.966,0,0,0,.423,4.508,17.6,17.6,0,0,0,1.426,4.426Z"/><g class="l"><circle class="f" cx="6.101" cy="6.101" r="6.101" transform="translate(1693.857 983.091)"/></g><path class="j" d="M1757.054,964.108c-.321,1.194-1.57,4.074-1.57,4.074a29.1,29.1,0,0,1-4,17.737c-4.627,7.424-6.231,13.5-10.823,24.723-6.36,15.2-9.829,13.337-11.226,13.113-2.074-1.535,1.273-4.279,2.722-7.155a4.664,4.664,0,0,0-.026-4.3,133.9,133.9,0,0,0-19-.423c-8.912.549-5.205,12.015-8.758,15.055-1.932,1.868-2.483-1.042-2.251-8.84s-4.419-16.58,9.14-19.851c10.765-3.618,11.213-6.411,21.838-13.633,10.325-7.126-.873-31.023-3.113-34.563s-5.2-5.79,9.517-6.74c9.714-.635,31.726-.961,48.636-1.274,7.105-.179,10.98,1.387,15.083,1.257,2.2-.162,6.619-.988,8.093.538,2.951,2.951,2.045,9.137-3.924,13.137a63.933,63.933,0,0,1-16.633,7.519c-11.863,3.5-27.085,4.541-42.356-3.32"/><path class="f" d="M1727.019,947.992a61.658,61.658,0,0,1,2.761,8.25c-.816,6.788-15.64,7.936-18.223,6.892-5.27-13.593,4.042-20.037,8.1-23.469s6.636-1.988,6.724-1.286c.09.6,3.3,5.858,4.664,8.081,0,.1.1.2.095.3a.773.773,0,0,1-.714.788Z"/><path class="f" d="M1766.169,933.954c-5.958-2.6-8.341,2.259-8.341,2.259"/><path class="f" d="M1811.919,943.534c1.205,5.622-6.839,8.086-6.839,8.086-16.634,1.718-16.847-9.289-16.847-9.289S1802.857,941.179,1811.919,943.534Z"/><path class="m" d="M1761.337,965.181"/><path class="g" d="M1747.637,959.046s4.537,9.68,8.123,10.541,4.478-4.525,4.478-4.525Z"/><path class="f" d="M1728.947,987.537c-14.368,21.462-14.868,9.65-14.868,9.65Z"/><path class="g" d="M1754.743,1005.88"/><path class="n" d="M1769.819,942.818a10.278,10.278,0,0,0-.657-2.512c-1.442-3.425-4.512-5.278-6.929-4.319s-3.278,4.546-1.934,7.87"/><ellipse class="g" cx="5.801" cy="8.101" rx="5.801" ry="8.101" transform="matrix(0.837, -0.548, 0.548, 0.837, 1746.353, 942.194)"/><ellipse class="h" cx="2.5" cy="3.1" rx="2.5" ry="3.1" transform="translate(1755.166 945.209) rotate(-29.027)"/><circle class="g" cx="1.2" cy="1.2" r="1.2" transform="translate(1755.533 946.293)"/><path class="n" d="M1761.009,943.269c-.1-.2-.293-.4-.39-.607-2.437-3.743-6.611-5.314-9.342-3.56a5.208,5.208,0,0,0-2.178,4.564"/><path class="o" d="M1749.729,988.99c.108-.5.81-.586,1.21-.579,4.607-.322,4.2,17.776-2.291,22.967C1756.13,1000.8,1752.156,987.431,1749.729,988.99Z"/><path class="p" d="M1804.736,954.215a21.991,21.991,0,0,1-3.053,3.049,26.147,26.147,0,0,1-7.377,4.376c-1.31.578-2.717.954-4.027,1.532l-4.222,1.229c-1.505.274-2.912.65-4.319,1.026s-2.911.651-4.318,1.027c1.5.026,3-.049,4.5-.123s3.007-.349,4.51-.524c1.505-.274,2.912-.65,4.419-1.025a31.545,31.545,0,0,0,4.327-1.527,23.086,23.086,0,0,0,7.687-4.971,12.948,12.948,0,0,0,4.236-7.93A11.165,11.165,0,0,1,1804.736,954.215Z"/><path class="d" d="M1749.006,996.18c-13.325-4.628-16.579-13.286-16.579-13.286.319-1.094,2.138-2.164,2.138-2.164,3.484,6.861,14.223,10.645,14.223,10.645Z"/><path class="m" d="M1749.5,998.416a5.574,5.574,0,0,1-1.551-2.927h0a6.635,6.635,0,0,1,.363-3.7,3.851,3.851,0,0,1,2.239-2.263c1.912-.667,3.886.867,4.342,3.475a6.313,6.313,0,0,1-.461,3.593,3.851,3.851,0,0,1-2.239,2.263,3.561,3.561,0,0,1-1,.183A4.9,4.9,0,0,1,1749.5,998.416Z"/><path class="q" d="M1750.952,989.638c1.714-.771,3.587.861,3.944,3.368s-.788,5.188-2.5,5.859-3.487-.859-3.944-3.368C1748.1,992.891,1749.239,990.409,1750.952,989.638Z"/><path class="r" d="M1748.452,995.5a4.437,4.437,0,0,0,1.352,2.824,14.154,14.154,0,0,1-.462-2.208c-.337-3.707,1.5-6.076,3.608-6.341a2.342,2.342,0,0,0-2-.134C1749.14,990.308,1748.1,992.891,1748.452,995.5Z"/><path class="c" d="M1749.9,998.423a4.817,4.817,0,0,1-1.451-2.926h0a6.754,6.754,0,0,1,.463-3.693,4.111,4.111,0,0,1,2.039-2.266c1.812-.669,3.586.861,3.944,3.368a7.011,7.011,0,0,1-.465,3.793,4.108,4.108,0,0,1-2.039,2.266,3.078,3.078,0,0,1-1,.083A2.8,2.8,0,0,1,1749.9,998.423Zm1.141-8.283a3.237,3.237,0,0,0-1.834,1.969,6.143,6.143,0,0,0-.356,3.295h0a4.066,4.066,0,0,0,1.257,2.522,2.013,2.013,0,0,0,2.193.438,3.238,3.238,0,0,0,1.834-1.97,6.166,6.166,0,0,0,.456-3.293c-.369-1.807-1.449-3.025-2.647-3.146a1.341,1.341,0,0,0-.9.185Z"/><path class="s" d="M1749.747,993.542l0-.2a.366.366,0,0,0,.1-.3,1.091,1.091,0,0,1,.817-.987.779.779,0,0,1,.7.312.868.868,0,0,1,.29.6h0c.1-.1.1-.2.205-.3a.76.76,0,0,1,.908-.485.987.987,0,0,1,.688.712,1.829,1.829,0,0,1,.188.7,3.368,3.368,0,0,1-.117,1c-.205.3-.31.595-.515.892a5.732,5.732,0,0,1-.713.788l-.712.688c0,.1-.1.1-.2,0s-.1-.2-.2-.3a5.471,5.471,0,0,1-.685-.912,10.726,10.726,0,0,1-.581-1.11,3.611,3.611,0,0,1-.182-1.1Z"/><path class="t" d="M1938.236,942.227l-1.8-5.322c-16.534,1.611-27.762-.225-40.624-10.733a62.207,62.207,0,0,1-22.448-41.818l12.8-1.261a48.486,48.486,0,0,0,17.709,33.127c10.123,8.326,12.074,6.682,15.489,8.688l3.827,4.38Z"/><path class="t" d="M1968.214,921.066l1.815,5.332c16.52-1.9,27.737-.109,40.761,10.213a61.4,61.4,0,0,1,22.975,41.556l-12.779,1.424a48.729,48.729,0,0,0-18.208-32.869c-10.28-8.159-12.14-6.577-15.591-8.407l-3.84-4.309Z"/><rect class="u" width="12.906" height="3.902" transform="translate(1932.9 937.884) rotate(-88.39)"/><path class="v" d="M1927.1,916.964s-6.044,2.56-7.277,4.513c-.53,2.033-2.4,13.953-1.562,22.648,1.091,2.559,7.884,5.054,7.884,5.054Z"/><path class="v" d="M1985.782,918.719s6.76,3.416,7.88,5.466c.392,2.066,1.635,13.557.336,22.109-1.262,2.463-8.224,4.577-8.224,4.577Z"/><circle class="d" cx="4.802" cy="4.802" r="4.802" transform="translate(1926.706 1014.871)"/><path class="f" d="M1931.894,1011.272a8.145,8.145,0,0,0-7.994,8.165,8.017,8.017,0,0,0,8.164,7.994,8.08,8.08,0,0,0-.17-16.159Zm.035,10.934a2.908,2.908,0,1,1,2.912-2.9h0A2.911,2.911,0,0,1,1931.929,1022.206Z"/><circle class="d" cx="4.802" cy="4.802" r="4.802" transform="translate(1970.008 1014.55)"/><path class="f" d="M1982.835,1019.313a8.079,8.079,0,1,0-7.994,8.164A8.064,8.064,0,0,0,1982.835,1019.313Zm-10.934.035a2.909,2.909,0,1,1,2.905,2.912h0A2.912,2.912,0,0,1,1971.9,1019.348Z"/><path class="w" d="M1923.647,925.058c-2.442,25.625-4.542,51.131-4.848,62.217s3.686,19.571,26.721,21.235,42.658,2.54,43.265-19.221.869-45.368.766-59.249c-.145-12.134-7.192-20.795-31.305-21.5C1934.036,907.813,1924.028,913.681,1923.647,925.058Z"/><path class="x" d="M1932.757,911.925c-6.094,2.753-8.9,7.19-9.11,13.133-2.829,25.524-3.936,51.186-4.848,62.217-.5,6.28,1.542,13.119,7.263,16.162,1.848-24.539,3.089-56.266,5.059-80.876A35.154,35.154,0,0,1,1932.757,911.925Z"/><path class="y" d="M1923.792,992.713a.588.588,0,0,1-.661.551h0a.68.68,0,0,1-.674-.589l.155-5.75a.587.587,0,0,1,.661-.551h0a.679.679,0,0,1,.673.589Z"/><path class="y" d="M1925.652,993.508a.587.587,0,0,1-.661.551h0a.68.68,0,0,1-.673-.589l.155-5.749a.587.587,0,0,1,.66-.552h0a.681.681,0,0,1,.674.589Z"/><path class="y" d="M1927.584,994.425a.587.587,0,0,1-.661.551h0a.679.679,0,0,1-.673-.589l.155-5.749a.588.588,0,0,1,.66-.552h0a.681.681,0,0,1,.674.59Z"/><path class="z" d="M1951.051,926.62s-14.238,1.871-11.029,15.734c1.836,8.027,10.915,10.083,20.254,5.591l2.877-11.036Z"/><path class="aa" d="M1988.882,989.315c.7-21.736.8-45.491.669-59.275-.01-6.309-1.946-11.57-7.149-15.408,4.727,29.458,2.115,74.372-1.233,86.422a17.445,17.445,0,0,1-1.384,4.912C1985.151,1003.23,1988.551,998.12,1988.882,989.315Z"/><path class="ab" d="M1982.058,1004.388c.147-.169.391-.312.538-.48h0a5.062,5.062,0,0,1-3.847-1.107c-3.224-2.7-3.882-9.7-4.1-12.028-.287-2.866-.258-5.754-.326-8.666a70.61,70.61,0,0,0-.911-13.161c-.834-3.94-4.281-6.183-7.084-7.327-3.915-1.641-8.208-1.83-12.017-1.892-4.293-.189-9.2-.02-13.658,2.022-2,.926-4.171,2.118-5.336,4.6a19.37,19.37,0,0,0-1.426,6.659l-.008.825c-.189,1.915-.4,3.927-.5,5.867-.118,2.038-.357,4.146-.6,6.255l0,.413c-.563,5.332-1.681,15.173-7.439,15.843a2.656,2.656,0,0,1-1.237-.012,2.489,2.489,0,0,1,.576.564c.219-.047.51.029.728-.017,6.1-.788,7.268-10.823,7.856-16.252l0-.413c.24-2.108.383-4.242.6-6.254.189-1.915.281-3.856.471-5.771l.079-.7a18.925,18.925,0,0,1,1.4-6.562,9.071,9.071,0,0,1,5.164-4.34c4.339-1.97,9.242-2.139,13.439-1.976,3.687.134,7.908.2,11.823,1.842,2.706,1.119,6.082,3.24,6.773,6.935a67.114,67.114,0,0,1,.936,13.065,79.247,79.247,0,0,0,.326,8.666c.371,4.129,1.163,9.815,4.244,12.272A5.236,5.236,0,0,0,1982.058,1004.388Z"/><circle class="f" cx="11.605" cy="11.605" r="11.605" transform="translate(1943.753 925.862)"/><circle class="j" cx="10.204" cy="10.204" r="10.204" transform="translate(1945.154 927.263)"/><path class="s" d="M1961.12,936.379a3.6,3.6,0,0,1-.774,2.176,12.281,12.281,0,0,1-1.986,2.067l-1.982,1.654a8.611,8.611,0,0,0-.93.792c-.147.168-.341.118-.509-.03h0c-.674-.589-1.251-1.153-1.924-1.742a17.075,17.075,0,0,1-1.9-1.839,5.728,5.728,0,0,1-1.17-1.856,4.953,4.953,0,0,1-.27-2.138,2.976,2.976,0,0,1,.6-1.5,2.929,2.929,0,0,1,4.684-.122c.143.244.312.391.455.635.046.219.046.219.071.122a3.691,3.691,0,0,1,1.031-1.178,2.969,2.969,0,0,1,2.092-.489,3.015,3.015,0,0,1,2.332,2.159c.047.219.118.341.165.56A2.522,2.522,0,0,1,1961.12,936.379Z"/><path class="ac" d="M1958.778,947.348a17.727,17.727,0,0,1-3.38.669,10.246,10.246,0,0,1-10.086-10.487c.025-.1-.021-.315,0-.412a10.572,10.572,0,0,1,4.376-8.061C1947.794,929.6,1941.508,946.567,1958.778,947.348Z"/><path class="x" d="M1966.883,911.1c1.556-5.177-1.6-5.379-3.911-4.431-1.974.829-5.917,2.076-6.746,2.48a.63.63,0,0,0-.7-.492,1.554,1.554,0,0,0-.926.379,1.144,1.144,0,0,0-.943-.35.667.667,0,0,0-.661.552c-.82-.421-4.617-1.721-6.574-2.541-2.248-.9-5.476-.808-4.074,4.521-1.3,5.762,1.84,5.235,4.424,4.048,1.633-.712,4.045-1.634,5.556-2.274h0c.122-.071.244-.143.341-.118l.559-.164c.118.341.287.488.6.467a1.342,1.342,0,0,0,.829-.4h0a.806.806,0,0,0,.75.3c.193.05.463-.19.513-.383,1.376.669,4.517,2.108,6.474,2.928C1965.2,916.765,1967.919,916.646,1966.883,911.1Z"/><path class="f" d="M1969.32,910.084c1.556-5.177-1.6-5.378-3.911-4.431-1.974.829-5.917,2.076-6.747,2.48a.629.629,0,0,0-.7-.492,1.554,1.554,0,0,0-.926.379,1.149,1.149,0,0,0-.943-.35.667.667,0,0,0-.661.552c-.821-.421-4.617-1.721-6.575-2.541-2.247-.9-5.476-.808-4.073,4.521-1.3,5.762,1.84,5.235,4.424,4.048,1.633-.712,4.045-1.634,5.556-2.274h0c.122-.071.244-.143.34-.118l.56-.164c.118.341.286.488.6.467a1.342,1.342,0,0,0,.829-.4h0a.8.8,0,0,0,.749.3c.194.05.463-.19.514-.383,1.376.669,4.516,2.108,6.474,2.928C1967.637,915.746,1970.453,915.653,1969.32,910.084Z"/><path class="ad" d="M1947,914.4c.316-.021.535-.068.851-.089a21.128,21.128,0,0,0,3.531-1.25c1.144-.426,2.314-.948,3.484-1.47l.682-.236a.48.48,0,0,0,.345-.53l-.126-1.894-.067,1.843c-.051.194-.076.291-.295.337-1.048.451-2.071.8-3.093,1.158-1.267.5-2.631.969-3.872,1.369a2.228,2.228,0,0,1-1.191.206.974.974,0,0,1-.771-.614.868.868,0,0,1-.139-.657,2,2,0,0,1,.573-1.4,1.541,1.541,0,0,0-.935,1.2,1.924,1.924,0,0,0,.687,1.73C1946.588,914.393,1946.782,914.444,1947,914.4Z"/><path class="ad" d="M1957.2,908.579a2.513,2.513,0,0,1,.021,2.694A5.937,5.937,0,0,0,1957.2,908.579Z"/><path class="ad" d="M1950.038,906.712c-1.865-.383-2.807-.732-3.489-.5-.8.307-1.322,1.1,1.116,4.84.455.635.257,1,.257,1s.488-.286-.539-1.9c-1-1.709-1.4-2.95-.792-3.308S1950.038,906.712,1950.038,906.712Z"/><path class="ad" d="M1964.6,913.919c1.864.383,2.807.732,3.489.5.8-.307,1.322-1.1-1.116-4.84-.455-.635-.257-1-.257-1s-.488.286.539,1.9c1,1.709,1.4,2.95.792,3.308C1967.506,914.264,1964.6,913.919,1964.6,913.919Z"/><path class="ad" d="M1968.221,908.35c.252-.968.139-1.721-.223-1.919-.628-.37-8.734,2.169-8.734,2.169,1.73-.686,7.892-2.9,8.666-2.7.7.08,1.351.765.089,3.228Z"/><line class="ae" y1="10.674" x2="0.301" transform="translate(1954.794 949.179)"/><path class="ae" d="M1982.448,914.851c.393,11.579,1.241,26.171,1.966,31.323s4.824,5.29,4.955,9.149"/><path class="ae" d="M1930.851,913.289c-1.038,11.516-2.859,26.033-3.784,31.168s-5.147,5.068-5.5,8.8"/><circle class="s" cx="1" cy="1" r="1" transform="translate(1959.525 929.746)"/><path d="M1906.72,752.035c.431-2.747-1.157-1.589-3.358,6.813l2.781-3.412C1906.421,753.985,1906.588,752.83,1906.72,752.035Z"/><ellipse class="k" cx="0.9" cy="0.7" rx="0.9" ry="0.7" transform="translate(1905.698 749.057) rotate(-71.824)"/><path d="M1902.712,761.545c-3.339,16.767-7.5,38.026-8.442,45.518a10.092,10.092,0,0,0,5.488,9.893l.57-4.182s-3.74-1.112-2.5-8.491c2.7-15.351,6.049-34.821,7.92-46.46-1.192,2.255-2.448,4.587-3.64,6.842-3.276,16.689-6.555,35.441-7.836,42.4"/><path class="ab" d="M1910.092,796.806s-5.908,1.454-7.27,3.319a163.978,163.978,0,0,0-4.52,24.862c.453,2.73,5.537,5.923,5.537,5.923Z"/><circle class="k" cx="0.5" cy="0.5" r="0.5" transform="translate(1928.405 846.854)"/><path class="g" d="M2050.929,848.209l-.308-.07a1.59,1.59,0,0,0-.442-1.2,1.669,1.669,0,0,1-.457-1.563,1.84,1.84,0,0,1,1-1.266,1.534,1.534,0,0,0,.844-1.009,1.585,1.585,0,0,0-.442-1.2,1.67,1.67,0,0,1-.457-1.564,1.837,1.837,0,0,1,1-1.265,1.529,1.529,0,0,0,.844-1.01l.309.07a1.84,1.84,0,0,1-1,1.266,1.529,1.529,0,0,0-.844,1.009,1.591,1.591,0,0,0,.441,1.2,1.672,1.672,0,0,1,.458,1.563,1.842,1.842,0,0,1-1,1.266,1.534,1.534,0,0,0-.845,1.009,1.588,1.588,0,0,0,.442,1.2A1.649,1.649,0,0,1,2050.929,848.209Z"/><path class="g" d="M2052.7,837.938l-.309-.07c.106-.754-.595-1.529-1.658-1.7l-2.3-.454.121-.394,2.3.454A2.243,2.243,0,0,1,2052.7,837.938Z"/><path class="g" d="M2048.317,849.434l-2.35-.369.122-.394,2.349.369a1.913,1.913,0,0,0,2.234-.986l.309.069A2.1,2.1,0,0,1,2048.317,849.434Z"/><path class="d" d="M2038.808,785.915c10.909,5.549,15.921,9.634,13.362,24.105s-13.764,74.345-15.6,83.758-12.233,18.09-26.947,16.319"/><path class="q" d="M2051.066,830.524a.626.626,0,0,1,.735-.373c4.143,1.517,6.4,6.442,5.033,11.268s-5.913,7.814-10.215,6.948a.551.551,0,0,1-.449-.616A63.188,63.188,0,0,1,2051.066,830.524Z"/><path class="ab" d="M2045.093,820.085s6.326,3.893,7.122,6.482c.047,2.452-1.64,17.1-4.3,27.045-1.635,2.733-9.272,7.04-9.272,7.04Z"/><path class="w" d="M1905.776,889.24c26.836,8.988,81.927,18.819,110.243,21.687a12.214,12.214,0,0,0,13.349-9.112c7.612-25.914,15.982-75.692,19.992-102.031,1-6.293-3.029-11.421-8.923-13.468-25.807-8.95-80.38-19.637-111.615-21.932-6.3-.418-11.816,2.907-13.349,9.112-6.684,25.54-16.169,75.228-18.62,102.277A12.413,12.413,0,0,0,1905.776,889.24Z"/><path class="g" d="M1931.772,815.165c-3.2,16.3,4.547,32.1,18.024,39.2a34.957,34.957,0,0,0,9.253,3.26c19,3.777,37.507-9.228,41.389-28.98a37.043,37.043,0,0,0-7.128-30.155h0a33.655,33.655,0,0,0-20.148-12.309C1954.165,782.408,1935.655,795.413,1931.772,815.165Z"/><ellipse class="j" cx="19.409" cy="18.708" rx="19.409" ry="18.708" transform="translate(1933.119 842.087) rotate(-78.821)"/><path class="g" d="M1936.757,867.995s12.1,4.746,19.073,6.162c7.956,1.539,19.812,1.464,19.812,1.464,1.493-.149,2.257,2.067,1.223,3.2-3.583,3.8-11.654,10.372-23.587,8.062s-17.03-11.473-18.83-16.421C1933.887,869.065,1935.421,867.3,1936.757,867.995Z"/><path class="f" d="M1990.856,784.964s-11.833-10.785-35.372-6.669C1955.433,778.381,1977.6,758.938,1990.856,784.964Z"/><path class="af" d="M2036.57,893.778c-1.938,9-10.555,14.544-15.762,16.773,8.008-40.291,17.051-81.71,24-122.177,2.307,2.565,10.046,6.781,7.663,20.189C2047.581,835.191,2042.7,865.1,2036.57,893.778Z"/><path class="m" d="M1940.805,826.711a10.818,10.818,0,0,1,18.6-5.816,11.349,11.349,0,0,1,2.862,10.151,11.122,11.122,0,0,1-12.937,9.011A11.3,11.3,0,0,1,1940.805,826.711Z"/><ellipse class="g" cx="4.802" cy="4.602" rx="4.802" ry="4.602" transform="translate(1937.597 836.334) rotate(-78.821)"/><circle class="g" cx="1.201" cy="1.201" r="1.201" transform="translate(1970.007 811.993)"/><path class="ac" d="M1929.386,824.713a32.392,32.392,0,0,0,1.783,9.615c6.245,18.279,26.8,27.792,45.817,21.292a37.273,37.273,0,0,0,22.591-21.295C1995.908,838.069,1958.433,870.821,1929.386,824.713Z"/><path class="ag" d="M1898.317,823.687"/><path class="ab" d="M2046.976,790.39c.085.052.119.189.205.241-1.342,5.5-11.995,60.213-12.247,63.335a116.1,116.1,0,0,0,3.072,13.669c-.018.223-.122.394-.14.617a110.291,110.291,0,0,1-3.259-14.133l.052-.086c.056-1.252,3.171-17.609,6.023-32.371C2041.61,816.844,2046.122,793.732,2046.976,790.39Z"/><path d="M2065.34,779.752"/><path class="ah" d="M2038.057,867.549l4.2-3.656-.14.617-4.2,3.656"/><path class="ai" d="M1887.437,870.094l4.776,14.39-23.573,1.561-2.093-15.3,7.607-.193.3,9.617,6.774-2.3-1.986-5.985Z"/><path class="ai" d="M2016.986,992.6l-2.026-14.391,23.68-1.95,4.527,14.891-8.465.809-1.8-9.743-10.258,1.472,1.732,6.248Z"/><path class="ai" d="M1887.429,870.051l4.865,14.344-18.137,1.407,4.181-6.979h0l2.855-.949-1.973-6Z"/><path class="aj" d="M1883.754,868.547c.4-1.647.914-3.419,2.82-3.744a1.482,1.482,0,0,1,1.461.4c.432.567-.029,1.254-.407,1.7-.262.309-.689.091-.812-.214A1.037,1.037,0,0,1,1887,865.5a.4.4,0,0,1,.624.08c.171.311.013.532.126.851l-.812-.215c.187-.2.528-.479.2-.579a1.778,1.778,0,0,0-1.164.165c-1.061.479-1.435,1.865-1.791,2.864a.226.226,0,0,1-.436-.121Z"/><path class="aj" d="M1880.308,869.92q1.391-1.861,2.6-3.853a34.537,34.537,0,0,0,3.726-8.107c1.461-5,2.716-10.941.241-15.874-2.249-4.483-6.738-5.951-10.5-2.548-2.233,2.021-.986,8.212-.715,10.962a79.631,79.631,0,0,0,1.188,8.988,39.374,39.374,0,0,1,.647,7.158c.027.976.08,1.95.113,2.925.02.6-.3,1.408.01,1.952C1878.576,873.211,1879.824,870.568,1880.308,869.92Z"/><path class="ak" d="M1873.354,868.685c.644.862,1.262,1.745,1.962,2.564.419.49,1.035,1.387,1.685,1.6,1.429.464,2.028-2.7,2.163-3.612.253-1.722.091-3.469.205-5.2.283-4.288-.663-8.515-1.668-12.673-1.133-4.687-2.133-9.524-7.756-10.174-2.684-.31-4.819.851-6.652,2.729a7.075,7.075,0,0,0-1.576,6.321,9.7,9.7,0,0,0,1.362,2.9c1.135,1.936,2.059,4.012,3.375,5.848C1868.777,862.223,1870.993,865.528,1873.354,868.685Z"/><path class="ak" d="M1863.814,866.91c-2.831-1.45-6.236-2.286-8.589-4.48-2.206-2.056-5.037,1.707-5.7,3.851-.574,1.843-.418,4.839.787,6.38,1.3,1.663,4.291,2.006,6.259,2.368a37.229,37.229,0,0,0,12.907.1c2.058-.341,5.9-.538,7.313-2.222-.788-1.082-2.843-1.5-4.025-1.957A93.818,93.818,0,0,1,1863.814,866.91Z"/><path class="aj" d="M1863.491,852.77c-1.6-1.492-2.349-2.784-4.782-2.6a6.256,6.256,0,0,0-4.8,2.759c-2.577,3.527-.915,8.8,2.411,11.32a78.332,78.332,0,0,0,8.071,4.829,49.978,49.978,0,0,0,6.682,3.435c1.321.521,3.28,1.484,4.713,1.3,2.4-.311,1.643-1.738.765-3.2Z"/><path class="ak" d="M1885.966,844.265c.466.13.611.779.705,1.191a4.477,4.477,0,0,1,.021,1.988.482.482,0,0,1-.353.353.756.756,0,0,1-.251,0,.483.483,0,0,1-.353-.353c-.084-.343-.468-3.375.231-3.179Z"/><path class="ak" d="M1883.786,844.857c.462.216.564,1.116.656,1.558a2.148,2.148,0,0,1-.2,1.98.5.5,0,0,1-.791-.106,6.441,6.441,0,0,1-.311-2.116c-.029-.27.1-1.572.645-1.316Z"/><path class="ak" d="M1881.024,845.709c.555.265.722,1.2.825,1.741.116.606.238,1.394-.37,1.777a.274.274,0,0,1-.279,0c-.52-.384-.5-1.033-.548-1.622-.05-.562-.248-1.419.184-1.871a.16.16,0,0,1,.188-.025Z"/><path class="ak" d="M1885.54,857.49c.257.9-.08,2.491-1.152,2.663a.129.129,0,0,1-.155-.09c-.123-.51.106-.763.369-1.193a6.506,6.506,0,0,0,.626-1.38.163.163,0,0,1,.312,0Z"/><path class="ak" d="M1883.653,857.163a2.137,2.137,0,0,1,.112,1.169,3.235,3.235,0,0,1-.221,1.312.365.365,0,0,1-.664-.086,2.142,2.142,0,0,1,.1-1.327,3.159,3.159,0,0,1,.433-1.1.152.152,0,0,1,.238.033Z"/><path class="ak" d="M1881.037,857.369c.405.35.425,1.227.533,1.721.067.309.39,1.489-.253,1.489s-.741-1.062-.8-1.515c-.064-.518-.148-1.366.325-1.721a.162.162,0,0,1,.193.026Z"/><path class="ak" d="M1862.076,855.059a1.517,1.517,0,0,1,.726.472c.313.29.633.572.954.854.268.235,1.113,1.07.506,1.415-.59.336-1.249-.47-1.6-.835-.413-.425-1.067-1.055-.928-1.7a.287.287,0,0,1,.345-.2Z"/><path class="ak" d="M1860.284,857.044a17.5,17.5,0,0,1,1.349,1.147,2.112,2.112,0,0,1,.9,1.322.14.14,0,0,1-.132.171,2.066,2.066,0,0,1-1.5-.758,3.475,3.475,0,0,1-1.035-1.559c-.059-.224.209-.472.42-.323Z"/><path class="ak" d="M1858.34,859.7c.54-.113,1.028.337,1.439.629a7.526,7.526,0,0,1,.694.524,1.405,1.405,0,0,1,.424.714.17.17,0,0,1-.122.208,1.158,1.158,0,0,1-.815-.027,3.639,3.639,0,0,1-.859-.529c-.421-.323-.979-.827-.869-1.411a.149.149,0,0,1,.108-.108Z"/><path class="ak" d="M1856.909,862.148c.458-.023.94.49,1.312.711.418.247,1.154.45,1.294.973a.319.319,0,0,1-.148.35c-.586.379-1.594-.32-2.033-.688a1.844,1.844,0,0,1-.638-.881c-.042-.144.022-.455.213-.465Z"/><path class="ak" d="M1870.239,864.33c.231.061.306.286.436.459a6.523,6.523,0,0,0,.651.761c.357.349,1.007.889.877,1.46a.255.255,0,0,1-.181.181c-.708.179-1.472-.7-1.845-1.186a1.855,1.855,0,0,1-.445-1.061c0-.267.155-.707.507-.614Z"/><path class="ak" d="M1868.888,866.436c.339.137.571.567.819.825.307.319.738.539.872.982a.422.422,0,0,1-.4.521c-.8.1-2.24-1.631-1.453-2.306a.144.144,0,0,1,.164-.022Z"/><path class="ak" d="M1867.541,868.671a9.41,9.41,0,0,1,2.369,1.165.531.531,0,0,1-.372.9,4.385,4.385,0,0,1-2.459-1.459.387.387,0,0,1,.462-.607Z"/><path class="ak" d="M1878.566,846.635c.233.406.4.845.639,1.251a1.649,1.649,0,0,1,.245,1.353c-.026.083-.139.155-.221.093-.713-.537-1.629-1.758-1.165-2.7a.291.291,0,0,1,.5,0Z"/><path class="aj" d="M1874.948,848.041a2.322,2.322,0,0,1,.387,2.681.2.2,0,0,1-.2.055c-.863-.246-.86-1.711-.889-2.445a.415.415,0,0,1,.7-.291Z"/><path class="aj" d="M1872.536,849.29a4.518,4.518,0,0,1,.685,1.267,1.771,1.771,0,0,1,.1,1.562.466.466,0,0,1-.729.1,2.6,2.6,0,0,1-.495-1.21,4.576,4.576,0,0,1-.278-1.421c.014-.328.469-.6.715-.3Z"/><path class="aj" d="M1869.148,850.489c.3.075.425.334.606.556a9.555,9.555,0,0,1,.685.964c.331.528.7,1.566.041,2a.345.345,0,0,1-.461-.127c-.185-.248-.243-.6-.4-.873-.2-.333-.382-.675-.576-1.011a2,2,0,0,1-.378-.984c.02-.247.167-.606.487-.526Z"/><path class="aj" d="M1866.75,852.06a11.881,11.881,0,0,0,1.186,1.67c.347.425.833.945.758,1.524a.279.279,0,0,1-.34.2c-.6-.108-1.085-.911-1.422-1.374a3.561,3.561,0,0,1-.693-1.883.275.275,0,0,1,.511-.135Z"/><path class="aj" d="M1877.447,858.434c.375.16.471.9.594,1.242a2.966,2.966,0,0,1,.237,1.689.427.427,0,0,1-.777.1,4.929,4.929,0,0,1-.556-1.933c-.034-.266-.045-1.335.5-1.1Z"/><path class="aj" d="M1875.634,859.856c.27.176.406.592.558.868a1.737,1.737,0,0,1,.313,1.268.418.418,0,0,1-.695.188,3.08,3.08,0,0,1-.539-1.2c-.089-.313-.18-.862.117-1.094a.21.21,0,0,1,.246-.033Z"/><path class="aj" d="M1873.359,861.326a8.2,8.2,0,0,1,1.08,1.1c.223.295.5.925.054,1.178-.831.473-1.565-1.436-1.672-1.969a.324.324,0,0,1,.538-.309Z"/><path class="aj" d="M1865.272,870.891a2.559,2.559,0,0,1,1.086.407c.406.227.9.4,1.048.878a.467.467,0,0,1-.223.529,1.38,1.38,0,0,1-1.326-.262,2.121,2.121,0,0,1-1-1.015.429.429,0,0,1,.414-.537Z"/><path class="aj" d="M1864.437,873.079c.313-.173.654-.007.969.075.348.091.755.188.861.577l-.112-.2.053.045a.382.382,0,0,1-.081.6l-.063.034.161-.162c-.274.481-.923.328-1.337.154a1.166,1.166,0,0,1-.556-.429.493.493,0,0,1,.1-.7Z"/><path class="aj" d="M1854.362,865.977c.411-.008.787.361,1.135.547.433.231,1.009.419,1.143.944a.283.283,0,0,1-.131.312c-.615.415-1.508-.165-1.948-.605-.132-.132-.768-1.188-.2-1.2Z"/><path class="aj" d="M1853.435,868.364c.38.177.748.37,1.128.546.49.228.94.279,1.27.749a.574.574,0,0,1-.216.786c-1.041.43-2.9-.47-2.786-1.729a.411.411,0,0,1,.6-.352Z"/><path class="aj" d="M1852.256,871.11a2.757,2.757,0,0,1,1.18.529c.4.252.831.457,1.233.714a.559.559,0,0,1,.285.491c-.136,1.1-1.649.4-2.085.048a2.271,2.271,0,0,1-.964-1.431.349.349,0,0,1,.351-.351Z"/><path class="al" d="M1869.176,888.3c1.116.325,1.676-.966,2.057-2.305.127-.445.234-.895.335-1.293a7.375,7.375,0,0,1,.292-.966,10.117,10.117,0,0,1,.767-1.467q.281-.447.6-.864a15.267,15.267,0,0,1,1.936-2.075c.263-.239.531-.467.8-.688.048-.039.1-.079.149-.118,2.912-2.215,8.851-2.563,9.281-6.634.859-8.153-8.187.123-11.865,3.783-.378.377-.7.7-.948.96l-.337.352a20.282,20.282,0,0,0-1.78,2.377c-.187.282-.377.581-.565.889a21.782,21.782,0,0,0-1.619,3.14,10.736,10.736,0,0,0-.439,1.3C1867.389,886.4,1867.589,887.838,1869.176,888.3Z"/><path d="M1883.1,870.674l.052-.014-.164.126.02-.034a.377.377,0,0,1,.221-.17.393.393,0,0,1,.36.1.385.385,0,0,1,.1.4,1.115,1.115,0,0,1-.191.316.409.409,0,0,1-.579-.579c.039-.032.078-.063.12-.092.026-.018.1-.079-.008.01l.026-.023a.353.353,0,0,0-.048.415.5.5,0,0,1-.048-.128l.192.191-.052-.013a.262.262,0,0,1,0-.5Z"/><path d="M1867.84,884.691c.485.168.978.3,1.339.431.575.218,1.155.432,1.709.7.11.052.225.114.345.174.127-.445.234-.895.335-1.293a15.951,15.951,0,0,0-1.711-.687c-.523-.209-1.047-.433-1.578-.624A10.736,10.736,0,0,0,1867.84,884.691Z"/><path d="M1869.9,880.252a10.979,10.979,0,0,0,1.751,1.334c.282.19.617.443.978.684q.281-.447.6-.864c-.36-.225-.713-.457-1.058-.706-.592-.425-1.117-.933-1.7-1.337C1870.276,879.645,1870.086,879.944,1869.9,880.252Z"/><path d="M1872.58,876.634a10.024,10.024,0,0,0,1.247,1.441,18.247,18.247,0,0,0,1.334,1.256c.263-.239.531-.467.8-.688.048-.039.1-.079.149-.118-.373-.436-.8-.833-1.19-1.219-.486-.478-.919-1.09-1.394-1.632C1873.15,876.051,1872.829,876.378,1872.58,876.634Z"/></g></svg>